<?xml version="1.0" encoding="utf-8"?>
<svg viewBox="-0.076 0.142 25.567 32" xmlns="http://www.w3.org/2000/svg">
  <g transform="matrix(0.11557, 0, 0, 0.11557, -24.951611, -13.482165)">
    <ellipse style="stroke: #ffffff;fill:#68acfc" cx="245.599" cy="149.857" rx="7.522" ry="7.381"/>
    <ellipse style="stroke: #ffffff;fill:#68acfc" cx="406.187" cy="361.541" rx="7.522" ry="7.381"/>
    <path style="stroke: #ffffff;fill:#68acfc" d="M 215.243 394.776 L 242.927 394.349 C 272.113 346.46 282.305 281.481 277.82 225.628 C 317.336 276.18 350.427 274.29 391.625 357.924 C 393.414 347.526 407.319 343.568 414.281 348.348 C 394.383 294.997 379.633 215.035 436.466 118.034 L 408.439 117.888 C 356.705 218.116 376.888 286.163 374.263 286.491 C 332.067 236.183 303.238 236.779 260.5 153.502 C 255.713 164.851 250.174 166.988 237.959 163.285 C 269.759 242.826 253.649 342.207 215.243 394.776 Z"/>
  </g>
</svg>